<svg width="40" height="40" viewBox="0 0 40 40" fill="none" xmlns="http://www.w3.org/2000/svg">
<g clip-path="url(#clip0_534_140)">
<path d="M18.8903 9.42907L20.0007 10.7329L21.111 9.42907C22.6599 7.61015 25.0422 6.45858 27.5007 6.45858C31.8286 6.45858 35.209 9.83899 35.209 14.1669C35.209 16.8379 34.0209 19.3753 31.6322 22.2957C29.2268 25.2365 25.7587 28.385 21.4377 32.3033L21.4356 32.3052L19.9969 33.6149L18.5648 32.321C18.5643 32.3205 18.5638 32.3201 18.5633 32.3197C14.2427 28.3933 10.7749 25.2411 8.36937 22.2982C5.98038 19.3754 4.79232 16.8379 4.79232 14.1669C4.79232 9.83899 8.17273 6.45858 12.5007 6.45858C14.9591 6.45858 17.3414 7.61015 18.8903 9.42907ZM9.16767 22.6026C11.5363 25.3703 14.8988 28.4156 18.8284 31.9737L18.9695 32.1148L20.0007 33.146L21.0318 32.1148L21.1729 31.9737C25.1025 28.4156 28.465 25.3703 30.8336 22.6026C33.1934 19.8453 34.7923 17.1135 34.7923 14.1669C34.7923 10.0282 31.6394 6.87524 27.5007 6.87524C24.7263 6.87524 21.9942 8.43646 20.6471 10.8086H19.3658C18.0088 8.43975 15.2792 6.87524 12.5007 6.87524C8.3619 6.87524 5.20898 10.0282 5.20898 14.1669C5.20898 17.1135 6.80787 19.8453 9.16767 22.6026Z" stroke="#A9A9A9" stroke-width="2.91667"/>
</g>
<defs>
<clipPath id="clip0_534_140">
<rect width="40" height="40" fill="white"/>
</clipPath>
</defs>
</svg>
